HIERARCHY
ROOT Hips
{
	OFFSET 0.000000 0.000000 0.000000
	CHANNELS 6 Xposition Yposition Zposition Zrotation Yrotation Xrotation 
	JOINT LowerBack
	{
		OFFSET 0.000000 0.000000 0.000000
		CHANNELS 3 Zrotation Yrotation Xrotation
		JOINT Spine
		{
			OFFSET 0.028270 2.035590 -0.193380
			CHANNELS 3 Zrotation Yrotation Xrotation
			JOINT Spine1
			{
				OFFSET 0.056720 2.048850 -0.042750
				CHANNELS 3 Zrotation Yrotation Xrotation
				JOINT Neck
				{
					OFFSET 0.000000 0.000000 0.000000
					CHANNELS 3 Zrotation Yrotation Xrotation
					JOINT Neck1
					{
						OFFSET -0.054170 1.746240 0.172020
						CHANNELS 3 Zrotation Yrotation Xrotation
						JOINT Head
						{
							OFFSET 0.104070 1.761360 -0.123970
							CHANNELS 3 Zrotation Yrotation Xrotation
							End Site
							{
								OFFSET 0.000000 0.000000 0.000000
							}
						}
					}
				}
				JOINT LeftShoulder
				{
					OFFSET 0.000000 0.000000 0.000000
					CHANNELS 3 Zrotation Yrotation Xrotation
					JOINT LeftArm
					{
						OFFSET 3.362410 1.200890 -0.311210
						CHANNELS 3 Zrotation Yrotation Xrotation
						JOINT LeftForeArm
						{
							OFFSET 4.983000 -0.000000 -0.000000
							CHANNELS 3 Zrotation Yrotation Xrotation
							JOINT LeftHand
							{
								OFFSET 3.483560 -0.000000 -0.000000
								CHANNELS 3 Zrotation Yrotation Xrotation
								JOINT LeftFingerBase
								{
									OFFSET 0.000000 0.000000 0.000000
									CHANNELS 3 Zrotation Yrotation Xrotation
									JOINT LeftHandIndex1
									{
										OFFSET 0.715260 -0.000000 -0.000000
										CHANNELS 3 Zrotation Yrotation Xrotation
										End Site
										{
											OFFSET 0.000000 0.000000 0.000000
										}
									}
								}
								JOINT LThumb
								{
									OFFSET 0.000000 0.000000 0.000000
									CHANNELS 3 Zrotation Yrotation Xrotation
									End Site
									{
										OFFSET 0.000000 0.000000 0.000000
									}
								}
							}
						}
					}
				}
				JOINT RightShoulder
				{
					OFFSET 0.000000 0.000000 0.000000
					CHANNELS 3 Zrotation Yrotation Xrotation
					JOINT RightArm
					{
						OFFSET -3.136600 1.374050 -0.404650
						CHANNELS 3 Zrotation Yrotation Xrotation
						JOINT RightForeArm
						{
							OFFSET -5.241900 -0.000000 -0.000000
							CHANNELS 3 Zrotation Yrotation Xrotation
							JOINT RightHand
							{
								OFFSET -3.444170 -0.000000 -0.000000
								CHANNELS 3 Zrotation Yrotation Xrotation
								JOINT RightFingerBase
								{
									OFFSET 0.000000 0.000000 0.000000
									CHANNELS 3 Zrotation Yrotation Xrotation
									JOINT RightHandIndex1
									{
										OFFSET -0.622530 -0.000000 -0.000000
										CHANNELS 3 Zrotation Yrotation Xrotation
										End Site
										{
											OFFSET 0.000000 0.000000 0.000000
										}
									}
								}
								JOINT RThumb
								{
									OFFSET 0.000000 0.000000 0.000000
									CHANNELS 3 Zrotation Yrotation Xrotation
									End Site
									{
										OFFSET 0.000000 0.000000 0.000000
									}
								}
							}
						}
					}
				}
			}
		}
	}
}
}
MOTION
Frames: 9
Frame Time: 0.008333
2.836830 16.629941 -1.399817 -168.777866 83.459031 -149.545497 9.819394 -3.612077 1.556157 1.040397 -4.229336 -2.030618 -7.404092 -4.175750 2.500257 10.312306 -9.919438 -5.608093 -3.865647 -0.307672 0.424546 0.000000 0.000000 0.000000 0.658861 6.786313 1.734007 -31.651109 -9.799740 3.954482 -0.973422 -74.849170 0.020658 -5.000024 -0.095820 0.014383 -0.028884 0.218574 0.000000 0.000000 0.000000 0.000000 0.000000 0.000000 0.000000 17.879416 -10.188365 0.363132 61.139268 -8.943272 -15.438768 4.166832 19.693992 0.022589 2.518718 10.276278 0.218151 0.110981 -0.044002 -0.000000 0.000000 0.000000 0.000000 0.000000 0.000000 0.000000 
3.026138 16.642543 -1.429246 -166.268143 83.009732 -147.098138 10.414317 -3.543358 1.694319 1.151657 -4.183625 -2.038372 -7.417275 -4.133594 2.430801 10.316502 -9.481519 -5.484430 -3.924219 -0.312328 0.453543 0.000000 0.000000 0.000000 0.531032 6.767760 1.699039 -32.957061 -9.298107 4.738320 -1.024595 -74.428868 0.018983 -4.618649 -0.130771 0.014653 -0.039111 0.213521 0.000000 0.000000 0.000000 0.000000 0.000000 0.000000 0.000000 18.003798 -9.790152 0.379404 61.162123 -8.138258 -15.832163 4.180350 18.740685 0.022433 2.415583 10.332037 0.210041 0.110041 -0.044062 -0.000000 0.000000 0.000000 0.000000 0.000000 0.000000 0.000000 
3.211183 16.658592 -1.455080 -164.624809 82.469844 -145.544195 10.920851 -3.491585 1.852086 1.245458 -4.148306 -2.041124 -7.433418 -4.102265 2.357792 10.354801 -9.032313 -5.346247 -3.984120 -0.317087 0.486392 0.000000 0.000000 0.000000 0.478852 6.692172 1.664128 -34.306454 -8.800635 5.605209 -1.079177 -73.893681 0.017318 -4.227410 -0.163816 0.014519 -0.048771 0.208175 0.000000 0.000000 0.000000 0.000000 0.000000 0.000000 0.000000 18.172978 -9.398106 0.394888 61.227982 -7.261354 -16.249984 4.183627 17.753624 0.022263 2.267530 10.414593 0.198232 0.108889 -0.044432 -0.000000 0.000000 0.000000 0.000000 0.000000 0.000000 0.000000 
3.392238 16.677927 -1.477345 -163.723888 81.857440 -144.749451 11.339444 -3.452457 2.016825 1.321024 -4.120210 -2.040860 -7.453215 -4.078410 2.283698 10.420678 -8.577206 -5.197630 -4.044489 -0.321863 0.522236 0.000000 0.000000 0.000000 0.483405 6.573427 1.632019 -35.667371 -8.321335 6.557005 -1.137028 -73.247367 0.015720 -3.846591 -0.189026 0.013879 -0.057650 0.202363 0.000000 0.000000 0.000000 0.000000 0.000000 0.000000 0.000000 18.380239 -9.013005 0.408998 61.339255 -6.322486 -16.693868 4.176286 16.762430 0.022082 2.075078 10.523856 0.182622 0.107541 -0.045203 -0.000000 0.000000 0.000000 0.000000 0.000000 0.000000 0.000000 
3.569617 16.700436 -1.496066 -163.479468 81.187941 -144.617060 11.662277 -3.422914 2.177328 1.376469 -4.096877 -2.039592 -7.476111 -4.059482 2.209654 10.509482 -8.123151 -5.041723 -4.104640 -0.326606 0.560454 0.000000 0.000000 0.000000 0.536927 6.414109 1.604557 -37.027802 -7.857934 7.585015 -1.197967 -72.495843 0.014257 -3.501215 -0.202357 0.012932 -0.065470 0.195931 0.000000 0.000000 0.000000 0.000000 0.000000 0.000000 0.000000 18.621189 -8.637540 0.421818 61.494067 -5.333367 -17.137586 4.157830 15.801146 0.021888 1.833860 10.661083 0.162512 0.106031 -0.046418 -0.000000 0.000000 0.000000 0.000000 0.000000 0.000000 0.000000 
3.743698 16.726058 -1.511624 -163.775326 80.470861 -145.018697 11.890901 -3.399788 2.321838 1.412299 -4.076220 -2.039540 -7.500665 -4.043339 2.137009 10.613046 -7.674728 -4.881913 -4.163458 -0.331235 0.600288 0.000000 0.000000 0.000000 0.623094 6.222760 1.583760 -38.374608 -7.414073 8.679417 -1.262200 -71.645720 0.012983 -3.213816 -0.199412 0.011676 -0.072066 0.188777 0.000000 0.000000 0.000000 0.000000 0.000000 0.000000 0.000000 18.884798 -8.271413 0.433291 61.691306 -4.307269 -17.557626 4.128760 14.905803 0.021677 1.548102 10.824550 0.138005 0.104386 -0.048100 -0.000000 0.000000 0.000000 0.000000 0.000000 0.000000 0.000000 
3.914841 16.754780 -1.524735 -164.490506 79.711291 -145.821146 12.032991 -3.380200 2.439008 1.430621 -4.056629 -2.043157 -7.524734 -4.028384 2.066196 10.720884 -7.234144 -4.720456 -4.219563 -0.335664 0.641248 0.000000 0.000000 0.000000 0.721382 6.005425 1.571505 -39.696733 -6.988726 9.826238 -1.329984 -70.707098 0.011933 -3.003301 -0.176441 0.010211 -0.077346 0.180848 0.000000 0.000000 0.000000 0.000000 0.000000 0.000000 0.000000 19.154783 -7.912062 0.443710 61.930552 -3.258340 -17.934010 4.090555 14.111398 0.021439 1.231529 11.007449 0.109899 0.102624 -0.050256 -0.000000 0.000000 0.000000 0.000000 0.000000 0.000000 0.000000 
4.083292 16.786582 -1.535989 -165.542146 78.913638 -146.933418 12.090650 -3.362247 2.523627 1.432529 -4.036665 -2.051109 -7.545829 -4.013117 1.999138 10.826539 -6.804674 -4.561372 -4.271548 -0.339783 0.682221 0.000000 0.000000 0.000000 0.819608 5.778461 1.568885 -40.993504 -6.599076 11.012203 -1.402568 -69.675739 0.011123 -2.882603 -0.133362 0.008638 -0.081340 0.172230 0.000000 0.000000 0.000000 0.000000 0.000000 0.000000 0.000000 19.420016 -7.558308 0.452315 62.207452 -2.198083 -18.222085 4.044837 13.453506 0.021167 0.893983 11.204025 0.078794 0.100789 -0.052838 -0.000000 0.000000 0.000000 0.000000 0.000000 0.000000 0.000000 
4.249279 16.821421 -1.546394 -166.813555 78.078649 -148.230033 12.080348 -3.343280 2.568546 1.422150 -4.014921 -2.065527 -7.560984 -3.996255 1.934425 10.917799 -6.384804 -4.404602 -4.317686 -0.343507 0.723272 0.000000 0.000000 0.000000 0.895714 5.542488 1.576790 -42.259001 -6.233726 12.217355 -1.480100 -68.564997 0.010535 -2.857677 -0.069121 0.006757 -0.084106 0.162973 0.000000 0.000000 0.000000 0.000000 0.000000 0.000000 0.000000 19.657958 -7.204591 0.459857 62.522445 -1.139405 -18.412336 3.994608 12.955909 0.020859 0.563383 11.402373 0.047191 0.098895 -0.055847 -0.000000 0.000000 0.000000 0.000000 0.000000 0.000000 0.000000 
